<svg xmlns="http://www.w3.org/2000/svg" width="32" height="32" viewBox="150 110 490 490">
    <rect x="0" y="0" width="1000" height="1000" fill="#FFFFFF"/>
    <g transform="translate(0,711) scale(0.1,-0.1)" fill="#0033E6" stroke="none">
        <path d="M0 3555 l0 -3555 3800 0 3800 0 0 3555 0 3555 -3800 0 -3800 0 0 -3555z m3039 1515 c160 -33 320 -123 421 -239 28 -31 89 -117 134 -189 l83 -132 -44 -138 c-51 -160 -199 -644 -239 -782 -14 -52 -29 -102 -32 -110 -15 -44 35 38 220 360 559 974 524 916 623 1015 100 100 169 145 284 186 349 123 750 -1 942 -291 38 -57 262 -435 582 -982 l186 -318 -272 -472 c-149 -260 -363 -635 -477 -833 l-205 -360 -465 -1 c-256 -1 -480 0 -497 3 -30 5 -41 18 -132 172 -154 260 -264 454 -264 466 0 5 96 177 213 380 117 204 222 389 233 413 24 48 32 51 48 20 36 -69 372 -628 378 -628 6 1 52 79 338 577 l145 252 -38 68 c-21 37 -96 167 -167 288 -72 121 -162 275 -201 342 -53 91 -74 119 -82 110 -6 -7 -38 -59 -71 -117 -33 -58 -112 -195 -175 -305 -215 -373 -339 -589 -755 -1318 l-416 -727 -469 0 c-257 0 -468 2 -468 5 0 3 29 53 64 112 34 60 133 230 218 378 86 149 199 347 253 440 54 94 169 294 257 446 l158 277 -83 143 c-46 79 -137 234 -202 344 -65 110 -136 231 -158 268 -22 37 -41 67 -42 65 -10 -11 -865 -1496 -909 -1580 -17 -32 -35 -56 -40 -55 -5 2 -115 187 -243 411 l-233 408 49 81 c26 45 91 156 143 247 113 195 476 823 539 930 61 103 184 226 279 278 188 104 385 135 589 92z"/>
    </g>
</svg>
