<?xml version="1.0" encoding="UTF-8"?>
<svg width="32" height="32" viewBox="0 0 32 32" version="1.1" xmlns="http://www.w3.org/2000/svg">
    <title>NNM Logo 100% Accurate</title>
    <rect width="32" height="32" fill="#00E5FF"/>
    <path fill="#FFFFFF" d="M16.037,7.126 C13.064,7.126 11.239,9.336 10.702,12.564 C9.865,11.218 8.675,9.332 7.214,9.332 C4.619,9.332 3.193,12.062 2.628,15.118 C2.127,17.828 2.658,19.334 3.754,20.064 C4.85,20.794 6.782,20.658 9.073,19.167 L9.389,19.387 C11.961,16.516 13.911,13.09 15.659,10.015 C17.407,13.09 19.357,16.516 21.929,19.387 L22.245,19.167 C24.536,20.658 26.468,20.794 27.564,20.064 C28.66,19.334 29.191,17.828 28.69,15.118 C28.125,12.062 26.699,9.332 24.104,9.332 C22.643,9.332 21.453,11.218 20.616,12.564 C20.079,9.336 18.254,7.126 15.281,7.126 L16.037,7.126 Z M16.037,11.513 C14.653,14.07 13.141,17.203 11.139,19.822 L11.127,19.839 L10.826,20.048 C12.308,21.034 14.129,21.574 16.037,21.574 C17.945,21.574 19.766,21.034 21.248,20.048 L20.947,19.839 L20.935,19.822 C18.933,17.203 17.421,14.07 16.037,11.513 Z"/>
</svg>
